<svg xmlns="http://www.w3.org/2000/svg" viewBox="0 0 300 300" fill="none">
    <!-- Left Tower -->
    <rect x="20" y="60" width="80" height="200" fill="#34495e" rx="6"/>
    <rect x="30" y="70" width="60" height="20" fill="#41b883"/>
    <rect x="30" y="100" width="60" height="20" fill="#41b883"/>
    <rect x="30" y="130" width="60" height="20" fill="#41b883"/>
    <rect x="30" y="160" width="60" height="20" fill="#41b883"/>
    <rect x="45" y="200" width="30" height="50" fill="#2c3e50" rx="3"/>

    <!-- Middle Tower -->
    <rect x="110" y="30" width="80" height="230" fill="#2c3e50" rx="6"/>
    <rect x="120" y="40" width="60" height="20" fill="#41b883"/>
    <rect x="120" y="70" width="60" height="20" fill="#41b883"/>
    <rect x="120" y="100" width="60" height="20" fill="#41b883"/>
    <rect x="120" y="130" width="60" height="20" fill="#41b883"/>
    <rect x="120" y="160" width="60" height="20" fill="#41b883"/>
    <rect x="135" y="200" width="30" height="60" fill="#34495e" rx="3"/>

    <!-- Right Tower -->
    <rect x="200" y="50" width="80" height="210" fill="#34495e" rx="6"/>
    <rect x="210" y="60" width="60" height="20" fill="#41b883"/>
    <rect x="210" y="90" width="60" height="20" fill="#41b883"/>
    <rect x="210" y="120" width="60" height="20" fill="#41b883"/>
    <rect x="210" y="150" width="60" height="20" fill="#41b883"/>
    <rect x="225" y="190" width="30" height="50" fill="#2c3e50" rx="3"/>

    <!-- Ground/Base -->
    <rect x="10" y="260" width="280" height="10" fill="#2c3e50"/>
</svg>
